<svg xmlns="http://www.w3.org/2000/svg" viewBox="0 0 960 480" width="100%" height="100%" fill="none">
  <defs>
    <!-- Premium Light Indigo Gradient Background -->
    <linearGradient id="card-bg" x1="0%" y1="0%" x2="100%" y2="100%">
      <stop offset="0%" stop-color="#ffffff" />
      <stop offset="100%" stop-color="#f0f4ff" />
    </linearGradient>
    
    <style>
      .cls-1 {
        fill: #6614de;
      }
      .cls-1, .cls-2 {
        stroke-width: 0px;
      }
      .cls-2 {
        fill: #1e293b;
      }
    </style>
  </defs>

  <!-- Card Background -->
  <rect width="960" height="480" fill="url(#card-bg)" rx="16" />
  <rect x="1" y="1" width="958" height="478" fill="none" stroke="#dbeafe" stroke-width="2" rx="15" />

  <!-- Centered and Scaled Logo Paths -->
  <g transform="translate(149.25, 81.35) scale(5.5)">
    <!-- Group 1 -->
    <g>
      <path class="cls-2" d="M30.96,17.39c-.5-.46-.75-1.03-.75-1.72s.25-1.28.75-1.75c.5-.46,1.14-.7,1.93-.7s1.4.23,1.9.7c.5.46.75,1.05.75,1.75s-.25,1.26-.75,1.72c-.5.46-1.13.7-1.9.7-.79,0-1.43-.24-1.93-.7ZM35.12,19.61v14.65h-4.49v-14.65h4.49Z"/>
      <path class="cls-2" d="M50.59,21.12c1.03,1.11,1.54,2.64,1.54,4.58v8.56h-4.47v-7.96c0-.98-.25-1.74-.76-2.29-.51-.55-1.19-.81-2.05-.81s-1.54.27-2.05.81c-.51.55-.76,1.31-.76,2.29v7.95h-4.49v-14.65h4.49v1.94c.45-.65,1.07-1.16,1.84-1.54s1.64-.57,2.6-.57c1.72,0,3.09.56,4.11,1.67Z"/>
      <path class="cls-2" d="M54.48,22.94c.62-1.14,1.49-2.01,2.6-2.63s2.38-.92,3.82-.92c1.84,0,3.38.48,4.61,1.45,1.24.96,2.04,2.32,2.43,4.07h-4.78c-.41-1.12-1.18-1.68-2.33-1.68-.82,0-1.48.32-1.97.96-.49.64-.73,1.55-.73,2.75s.24,2.1.73,2.75c.49.64,1.15.96,1.97.96,1.15,0,1.94-.56,2.33-1.68h4.78c-.38,1.72-1.2,3.06-2.44,4.05-1.24.98-2.77,1.47-4.6,1.47-1.43,0-2.71-.31-3.82-.92-1.11-.61-1.98-1.49-2.6-2.63-.62-1.14-.93-2.47-.93-3.99,0-1.52.31-2.85.93-3.99Z"/>
      <path class="cls-2" d="M74,14.83v19.43h-4.49V14.83h4.49Z"/>
      <path class="cls-2" d="M90.91,19.61v14.65h-4.49v-2c-.45.65-1.07,1.17-1.85,1.57-.78.39-1.64.59-2.59.59-1.12,0-2.11-.25-2.97-.75-.86-.5-1.52-1.22-2-2.17-.48-.94-.71-2.05-.71-3.33v-8.57h4.47v7.95c0,.98.25,1.74.76,2.29s1.19.81,2.05.81,1.57-.27,2.08-.81c.51-.55.76-1.31.76-2.29v-7.95h4.49Z"/>
    </g>
    <!-- Group 2 -->
    <g>
      <path class="cls-1" d="M39.58,57.47l-4.47-6.14v6.14h-4.49v-19.43h4.49v10.74l4.44-5.96h5.54l-6.09,7.35,6.14,7.3h-5.56Z"/>
      <path class="cls-1" d="M46,46.16c.57-1.14,1.34-2.01,2.33-2.63.98-.61,2.08-.92,3.28-.92,1.03,0,1.94.21,2.72.63.78.42,1.38.97,1.8,1.66v-2.07h4.49v14.65h-4.49v-2.08c-.44.68-1.05,1.24-1.82,1.66s-1.68.63-2.72.63c-1.19,0-2.28-.31-3.26-.93s-1.75-1.5-2.33-2.65c-.57-1.15-.85-2.47-.85-3.98,0-1.52.28-2.84.85-3.98ZM55.19,47.49c-.62-.65-1.38-.97-2.27-.97s-1.65.32-2.27.96-.93,1.52-.93,2.64.31,2.01.93,2.66c.62.66,1.38.99,2.27.99s1.65-.32,2.27-.97.93-1.53.93-2.65-.31-2.01-.93-2.66Z"/>
      <path class="cls-1" d="M71.22,53.66v3.81h-2.28c-1.63,0-2.9-.4-3.81-1.19s-1.36-2.1-1.36-3.9v-5.83h-1.78v-3.72h1.78v-3.57h4.49v3.57h2.94v3.73h-2.94v5.88c0,.44.1.75.31.94.21.2.56.29,1.05.29h1.6Z"/>
      <path class="cls-1" d="M85.95,44.33c1.01,1.11,1.52,2.64,1.52,4.58v8.56h-4.47v-7.95c0-.98-.25-1.74-.76-2.29-.51-.55-1.19-.81-2.05-.81s-1.54.27-2.05.81c-.51.55-.76,1.31-.76,2.29v7.95h-4.49v-19.43h4.49v6.75c.45-.65,1.08-1.17,1.87-1.55.79-.38,1.67-.58,2.65-.58,1.68,0,3.03.55,4.05,1.66Z"/>
      <path class="cls-1" d="M92.58,56.76c-1.15-.61-2.05-1.49-2.7-2.63-.66-1.14-.99-2.47-.99-3.99s.34-2.83,1-3.98,1.57-2.03,2.73-2.64c1.15-.61,2.45-.92,3.89-.92s2.73.31,3.89.92c1.15.61,2.07,1.5,2.73,2.64.66,1.15,1,2.47,1,3.98s-.34,2.83-1.01,3.98c-.67,1.15-1.59,2.03-2.76,2.64s-2.47.92-3.9.92c-1.43,0-2.73-.31-3.87-.92ZM98.64,52.85c.6-.63.91-1.53.91-2.7s-.29-2.08-.88-2.7-1.31-.94-2.17-.94-1.6.31-2.18.93c-.58.62-.87,1.53-.87,2.72s.29,2.08.85,2.7,1.28.94,2.14.94c.86,0,1.59-.31,2.19-.94Z"/>
      <path class="cls-1" d="M118.73,44.33c1.03,1.11,1.54,2.64,1.54,4.58v8.56h-4.47v-7.95c0-.98-.25-1.74-.76-2.29-.51-.55-1.19-.81-2.05-.81s-1.54.27-2.05.81c-.51.55-.76,1.31-.76,2.29v7.95h-4.49v-14.65h4.49v1.94c.45-.65,1.07-1.16,1.84-1.54s1.64-.57,2.6-.57c1.72,0,3.09.56,4.11,1.67Z"/>
    </g>
    <!-- Group 3 (Purple background shapes) -->
    <g>
      <path class="cls-1" d="M49.65,15.87c0,.57-.05,1.15-.13,1.74,0,.03,0,.07-.01.1h-3.21c.39-2.36.02-4.4-1.04-5.77-.93-1.19-2.35-1.86-4.22-1.99h-.17s.05.15.05.15c.27.91.17,1.85-.22,2.39-.27.37-.68.57-1.22.57h-.03c-1.24,0-1.5-1.26-1.84-3.02-.42-2.05-.94-4.62-3.39-6.07-1.02-.69-2.43-.94-3.58-.61-.86.24-1.49.75-1.83,1.5v4.9c0,.34-.08.63-.27.89-.27.41-.77.65-1.33.65h-.05c-.55,0-1.03-.23-1.32-.64v-.03c-.18-.24-.27-.54-.26-.88v-4.89c-.36-.74-.99-1.26-1.84-1.5-1.14-.31-2.58-.07-3.58.61-2.46,1.45-2.98,4.02-3.4,6.07-.35,1.75-.61,3.02-1.84,3.02h-.03c-.53,0-.94-.2-1.22-.57-.4-.55-.48-1.48-.22-2.39l.05-.17h-.17c-1.89.15-3.33.83-4.26,2.05-1.1,1.45-1.43,3.64-.93,6.16v.08s.08.02.08.02c1.9.48,3.46,2.17,4.07,4.42l.02.09h.09c2.36-.02,4.07.71,4.61,1.96.27.61.18,1.26-.23,1.69-.45.47-1.17.56-1.99.25-1.7-1.17-3.76-.89-5.65.78-.7.53-1.46.45-1.94.2-.52-.27-.82-.75-.8-1.29.03-.96,1.05-1.95,2.78-2.7l.1-.04-.03-.1c-.52-1.61-1.54-2.38-2.8-2.1-1.68.38-3.49,2.71-3.2,4.88,0,1.85.99,3.52,2.67,4.57,1.85,1.15,4.14,1.31,5.96.42,1.01-.28,1.7.36,1.91,1.07.22.74-.02,1.68-1.07,2.01-5.39,2.18-10.08-.82-11.91-4.94-1.62-3.65-.98-8.43,4.11-10.89l.08-.04-.02-.09c-.71-3.25-.05-6.39,1.82-8.62,1.66-1.97,4.11-3.05,6.94-3.05.16,0,.32,0,.48,0h.09s.03-.08.03-.08c.8-2.54,2.68-4.72,5.03-5.86,1.96-.94,4.01-1.04,5.93-.29.61.24,1.25.65,1.8,1.15l.08.07.08-.07c.55-.5,1.19-.9,1.8-1.15,1.92-.75,3.97-.64,5.93.29,2.35,1.13,4.23,3.32,5.04,5.86l.03.09h.09c2.93-.13,5.49.87,7.24,2.82,1.48,1.66,2.28,3.89,2.28,6.31Z"/>
      <path class="cls-1" d="M27.05,24.03v2.42c0,.28-.08.55-.22.79-.11.2-.34.59-.59.96-.58.87-1.3,1.71-2.21,2.56-1.55,1.45-3.37,2.56-5.26,3.2-.66.23-1.12,0-1.38-.22-.43-.38-.64-1.05-.52-1.66.11-.58.5-1,1.07-1.19,1.43-.49,2.82-1.37,4.03-2.54.82-.79,1.53-1.68,2.1-2.65l.1-.18h-1.66c-.06,0-.11-.01-.17-.03-.01,0-.02,0-.03,0-.01,0-.03,0-.05-.01-.02,0-.04,0-.05-.01h-.02s-.1-.03-.14-.06h-.03s-.03-.03-.03-.03l-.07-.03c-.06-.03-.1-.07-.16-.1-.01-.01-.03-.02-.05-.04l-.06-.05s-.06-.06-.1-.1c-.29-.34-.43-.84-.37-1.32,0-.05.01-.1.02-.15.01-.08.03-.16.06-.24,0-.02.01-.04.02-.06,0-.01.01-.03.02-.05,0-.02.01-.04.03-.06.03-.06.06-.12.1-.19.06-.09.14-.18.23-.27.03-.03.08-.06.11-.09.23-.17.5-.26.82-.27h2.99c.31.01.59.11.82.27.04.03.08.06.11.1.09.08.17.17.23.27.03.05.07.1.11.2,0,.01.01.03.02.04,0,.01.01.03.02.05,0,.02.01.04.03.07.02.07.05.15.06.23,0,.03.01.08.02.11v.03c.03.08.03.25.03.31Z"/>
      <path class="cls-1" d="M27.05,38.1v3.19h-11.13c-1.06,0-1.54-.82-1.54-1.59s.48-1.59,1.54-1.59h11.13Z"/>
      <path class="cls-1" d="M27.05,44.33v3.19h-6.04c-1.06,0-1.54-.82-1.54-1.59,0-.42.14-.81.38-1.1.28-.32.68-.5,1.15-.5h6.04Z"/>
      <path class="cls-1" d="M27.05,17.6c0,.77-.46,1.59-1.47,1.59h-1.44c-1.01,0-1.47-.82-1.47-1.59,0-.42.13-.81.37-1.1.27-.32.64-.5,1.1-.5h1.44c.45,0,.84.17,1.1.5.24.29.37.68.37,1.1Z"/>
      <path class="cls-1" d="M19.77,18.15l-.06.09.09.07c1.33,1.05,1.46,2.34.89,3.08-.44.58-1.34.82-2.35.08-1.77-2.35-3.84-3.67-6.15-3.91-.35-.06-.66-.29-.88-.63-.25-.41-.34-.91-.23-1.31.2-.52.52-.86.99-1.03,1.45-.54,3.83.74,5.1,1.43l.16.08.18-.25c1.22-1.7,2.48-3.46,2.05-5.66-.06-1.03.45-1.66.96-1.91.52-.25,1.12-.17,1.56.22,1,.89,1.04,3.04.1,5.75-.43,1.15-1.11,2.1-1.84,3.1-.2.27-.38.54-.57.8Z"/>
    </g>
  </g>
</svg>